<?xml version="1.0"?>
<svg xmlns="http://www.w3.org/2000/svg" id="Layer_1" data-name="Layer 1" viewBox="0 0 512 512" width="512" height="512"><title>service station location map</title><path d="M376.614,258.5l-16.678-16.678a23.408,23.408,0,0,0-13.05-38.292,23.409,23.409,0,0,0-15.6-32.3,23.388,23.388,0,0,0-20.253-35.865c.063-.7.1-1.412.1-2.127a23.419,23.419,0,0,0-39.978-16.559l-18.183,18.183L208.489,90.373a61.159,61.159,0,0,0-76.671-79.462,6,6,0,0,0-2.342,9.934l20.087,20.088-4.336,21.626-22.636,4-19.357-19.49a6.007,6.007,0,0,0-9.953,2.318,61.159,61.159,0,0,0,79.431,76.762l4.9,4.9-37.537,37.536a35.8,35.8,0,0,0-10.555,25.483v13.017a70.055,70.055,0,0,1-16.624,45.487l-2.244-2.244a18.441,18.441,0,0,0-26.081,0L58.174,276.718a18.442,18.442,0,0,0,0,26.08l77.16,77.16a106,106,0,1,0,159.114-72.533l29.771-29.77,16.618,16.618a61.444,61.444,0,0,0,14.023,64.706,60.813,60.813,0,0,0,43.107,17.951,61.65,61.65,0,0,0,19.54-3.195,6,6,0,0,0,2.343-9.933l-20.088-20.088,4.337-21.626,22.636-4,19.356,19.49a6.007,6.007,0,0,0,9.953-2.318,60.826,60.826,0,0,0-14.724-62.738A61.452,61.452,0,0,0,376.614,258.5ZM171.631,113.614a49.356,49.356,0,0,1-55.14-9.972A48.849,48.849,0,0,1,102.4,63.257l13.89,13.984a5.991,5.991,0,0,0,5.3,1.681l29.76-5.26a6,6,0,0,0,4.838-4.728l5.774-28.792a6,6,0,0,0-1.64-5.422L145.655,20.054a48.843,48.843,0,0,1,40.326,14.1,49.359,49.359,0,0,1,9.973,55.142,6,6,0,0,0,1.216,6.732l47.32,47.32L225.684,162.15l-47.32-47.319A6,6,0,0,0,171.631,113.614Zm-30.115,93.468V194.065a23.883,23.883,0,0,1,7.04-17l37.537-37.536,31.106,31.1-1.386,1.386q-.625.626-1.278,1.223c-9.753,8.944-24.652,11-37.07,5.11l-.525-.25a6,6,0,0,0-5.143,10.842l.526.25c17.046,8.083,36.8,5.292,50.319-7.1q.846-.774,1.658-1.588l55.343-55.342a11.419,11.419,0,1,1,16.148,16.149l-42.229,42.229a6,6,0,0,0,0,8.485,5.948,5.948,0,0,0,2.862,1.578,6.039,6.039,0,0,0,1.381.179,5.979,5.979,0,0,0,4.242-1.758l41.35-41.348a11.418,11.418,0,1,1,16.148,16.148l-10.557,10.558L278.2,208.173a6,6,0,1,0,8.485,8.484l30.8-30.8a11.419,11.419,0,0,1,16.141,16.157l-7.918,7.918L302.83,232.807a6,6,0,1,0,8.485,8.484l22.874-22.874a11.418,11.418,0,1,1,16.148,16.148l-67.021,67.023a105.926,105.926,0,0,0-108.485,12.919L121.4,261.075A81.968,81.968,0,0,0,141.516,207.082ZM66.66,294.312a6.44,6.44,0,0,1,0-9.109L93.053,258.81a6.441,6.441,0,0,1,9.11,0l63.6,63.6a106.174,106.174,0,0,0-27.1,43.909ZM333.752,398.239a94,94,0,1,1-94-94,93.939,93.939,0,0,1,94,94ZM446.927,321.39,433.038,307.4a6,6,0,0,0-5.3-1.679l-29.759,5.259a6,6,0,0,0-4.838,4.729l-5.774,28.792a6,6,0,0,0,1.64,5.422l14.665,14.665a48.851,48.851,0,0,1-40.325-14.1,49.355,49.355,0,0,1-9.973-55.14,6,6,0,0,0-1.216-6.732L332.7,269.17l18.806-18.806,19.451,19.451a6,6,0,0,0,6.733,1.217,49.354,49.354,0,0,1,55.141,9.974A48.837,48.837,0,0,1,446.927,321.39Z"/><path d="M193.811,337.741a67.376,67.376,0,0,0-19.919,43.405,63.258,63.258,0,0,0,3.936,26.434,68.617,68.617,0,0,0,15,23.449l42.584,44.62a6,6,0,0,0,4.339,1.858h0a6,6,0,0,0,4.34-1.857l42.585-44.621a68.647,68.647,0,0,0,15-23.449,63.263,63.263,0,0,0,3.935-26.434,67.376,67.376,0,0,0-19.919-43.405,65.61,65.61,0,0,0-91.882,0Zm99.829,44.22a51.346,51.346,0,0,1-3.214,21.445A56.717,56.717,0,0,1,278,422.744l-38.244,40.072-38.244-40.072a56.714,56.714,0,0,1-12.429-19.338,51.3,51.3,0,0,1-3.214-21.445,55.391,55.391,0,0,1,16.376-35.681,53.613,53.613,0,0,1,75.022,0A55.4,55.4,0,0,1,293.64,381.961Z"/><path d="M208.261,380.845A31.492,31.492,0,1,0,239.752,349.1,31.657,31.657,0,0,0,208.261,380.845Zm50.982,0A19.493,19.493,0,1,1,239.752,361.1,19.644,19.644,0,0,1,259.243,380.845Z"/></svg>
